HIERARCHY
ROOT Hips
{
 OFFSET 0.000000 0.000000 0.000000
 CHANNELS 6 Xposition Yposition Zposition Yrotation Xrotation Zrotation
 JOINT Chest
 {
  OFFSET 0.000000 9.588913 -0.003946
  CHANNELS 3 Yrotation Xrotation Zrotation
  JOINT Chest2
  {
   OFFSET 0.000000 9.541882 0.008053
   CHANNELS 3 Yrotation Xrotation Zrotation
   JOINT Chest3
   {
    OFFSET 0.000000 9.501360 0.000000
    CHANNELS 3 Yrotation Xrotation Zrotation
    JOINT Chest4
    {
     OFFSET 0.000000 9.491660 0.000000
     CHANNELS 3 Yrotation Xrotation Zrotation
     JOINT Neck
     {
      OFFSET 0.000000 14.331917 0.000000
      CHANNELS 3 Yrotation Xrotation Zrotation
      JOINT Head
      {
       OFFSET 0.000000 8.884799 0.017034
       CHANNELS 3 Yrotation Xrotation Zrotation
       End Site
       {
        OFFSET 0.000000 16.896195 0.008993
       }
      }
     }
     JOINT RightCollar
     {
      OFFSET -2.923010 9.499495 0.000000
      CHANNELS 3 Yrotation Xrotation Zrotation
      JOINT RightShoulder
      {
       OFFSET -13.795216 0.000000 0.000000
       CHANNELS 3 Yrotation Xrotation Zrotation
       JOINT RightElbow
       {
        OFFSET -30.272209 0.000000 0.000000
        CHANNELS 3 Yrotation Xrotation Zrotation
        JOINT RightWrist
        {
         OFFSET -24.478199 0.000000 0.000000
         CHANNELS 3 Yrotation Xrotation Zrotation
         End Site
         {
          OFFSET -18.090752 0.000000 0.000000
         }
        }
       }
      }
     }
     JOINT LeftCollar
     {
      OFFSET 2.923010 9.499495 0.000000
      CHANNELS 3 Yrotation Xrotation Zrotation
      JOINT LeftShoulder
      {
       OFFSET 13.795216 0.000000 0.000000
       CHANNELS 3 Yrotation Xrotation Zrotation
       JOINT LeftElbow
       {
        OFFSET 30.272209 0.000000 0.000000
        CHANNELS 3 Yrotation Xrotation Zrotation
        JOINT LeftWrist
        {
         OFFSET 24.478199 0.000000 0.000000
         CHANNELS 3 Yrotation Xrotation Zrotation
         End Site
         {
          OFFSET 18.090752 0.000000 0.000000
         }
        }
       }
      }
     }
    }
   }
  }
 }
 JOINT RightHip
 {
  OFFSET -7.826875 0.019532 0.001973
  CHANNELS 3 Yrotation Xrotation Zrotation
  JOINT RightKnee
  {
   OFFSET 0.000000 -40.546152 -0.001885
   CHANNELS 3 Yrotation Xrotation Zrotation
   JOINT RightAnkle
   {
    OFFSET 0.000000 -39.417092 -0.003189
    CHANNELS 3 Yrotation Xrotation Zrotation
    JOINT RightToe
    {
     OFFSET 0.000000 -7.579396 17.243563
     CHANNELS 3 Yrotation Xrotation Zrotation
     End Site
     {
      OFFSET 0.000000 -1.500329 6.694466
     }
    }
   }
  }
 }
 JOINT LeftHip
 {
  OFFSET 7.826875 0.019532 0.001973
  CHANNELS 3 Yrotation Xrotation Zrotation
  JOINT LeftKnee
  {
   OFFSET 0.000000 -40.546152 -0.001885
   CHANNELS 3 Yrotation Xrotation Zrotation
   JOINT LeftAnkle
   {
    OFFSET 0.000000 -39.417092 -0.003189
    CHANNELS 3 Yrotation Xrotation Zrotation
    JOINT LeftToe
    {
     OFFSET 0.000000 -7.579396 17.243563
     CHANNELS 3 Yrotation Xrotation Zrotation
     End Site
     {
      OFFSET 0.000000 -1.500329 6.694466
     }
    }
   }
  }
 }
}
MOTION
Frames: 17
Frame Time: 0.008333
0.000000 87.345680 0.000000 0.000000 -5.767889 0.000000 0.000000 11.653876 0.000000 0.000000 -5.885988 0.000000 0.000000 -0.000000 0.000000 0.000000 -0.000000 0.000000 0.000000 12.528808 0.000000 0.000000 0.711711 0.000000 0.000000 -0.000000 0.000000 0.000000 -0.000000 0.000000 2.309063 -0.000000 0.000000 -2.309063 -0.000000 -0.000000 0.000000 -0.000000 0.000000 0.000000 0.000000 0.000000 -2.309063 0.000000 0.000000 2.309063 -0.000000 0.000000 0.000000 8.520374 0.000000 0.000000 1.905768 0.000000 -0.000000 -4.658254 0.000000 0.000000 -0.000000 0.000000 0.000000 8.520374 0.000000 0.000000 1.905768 0.000000 -0.000000 -4.658254 0.000000 0.000000 -0.000000 0.000000
1.854697 88.505860 17.886548 -40.425369 -7.722827 -1.529729 1.259263 2.145071 1.084147 0.700457 1.234642 0.635933 0.877760 1.542074 0.797317 0.700457 1.234642 0.635933 -0.068312 30.110033 -0.300332 -0.008013 7.937163 -0.317825 -6.336333 1.706569 -2.057106 -3.122285 -0.728156 91.826131 1.679377 -1.051186 -0.132759 0.632116 -2.039235 -1.910029 0.733382 -0.623508 -2.828643 0.029356 0.488600 -86.633117 0.926562 3.295478 -0.815178 -5.269132 4.039610 6.844161 -6.323992 13.762430 -4.442631 -7.924718 -1.726713 0.499384 -1.662445 -3.535004 3.402822 0.045972 -0.117885 0.077645 3.187223 10.012727 10.250993 4.723472 3.314530 2.194292 4.501046 -5.638342 -9.093571 0.044193 0.217832 -0.008062
1.890034 88.505624 17.946475 -40.428841 -7.700712 -1.529608 1.244063 2.126533 1.054381 0.691744 1.221838 0.628826 0.866822 1.526098 0.788379 0.691744 1.221838 0.628826 -0.048651 30.131455 -0.287102 0.010807 7.965782 -0.307614 -6.379110 1.743030 -2.024356 -3.176109 -0.676297 92.008919 1.746450 -1.260656 -0.214329 0.767943 -2.156215 -2.002303 0.711213 -0.620826 -2.813149 0.004795 0.581207 -86.597508 0.939466 3.369890 -0.815943 -5.302502 4.060073 6.825420 -6.242053 13.739104 -4.474254 -7.977342 -1.691320 0.501754 -1.678402 -3.541889 3.442005 0.037057 -0.118265 0.072892 3.134800 10.054788 10.198646 4.736814 3.253512 2.167435 4.542966 -5.660408 -9.019327 0.032424 0.224988 -0.013329
1.933151 88.505031 18.015459 -40.433408 -7.669096 -1.526567 1.229870 2.103082 1.026295 0.684113 1.208260 0.621285 0.857234 1.509154 0.778900 0.684113 1.208260 0.621284 -0.030425 30.148240 -0.270667 0.027316 7.988197 -0.293512 -6.420792 1.780848 -1.995988 -3.274157 -0.619045 92.188436 1.832987 -1.461008 -0.302263 0.953151 -2.242838 -2.173583 0.691040 -0.621175 -2.803362 -0.029152 0.669266 -86.570024 0.947062 3.444848 -0.813007 -5.339325 4.077029 6.815619 -6.144290 13.709748 -4.518827 -8.033684 -1.658007 0.514326 -1.698488 -3.548765 3.483864 0.030782 -0.119913 0.069499 3.071401 10.098459 10.137048 4.767181 3.178153 2.134944 4.572752 -5.679345 -8.941540 0.027834 0.232424 -0.012641
1.982539 88.504079 18.091409 -40.439302 -7.631027 -1.519105 1.215913 2.077117 1.000137 0.677030 1.193745 0.613472 0.848328 1.491037 0.769083 0.677030 1.193746 0.613472 -0.013356 30.160531 -0.252410 0.042134 8.004599 -0.277118 -6.460168 1.823862 -1.976891 -3.415630 -0.564296 92.360865 1.929783 -1.637892 -0.399696 1.167210 -2.313966 -2.393248 0.676910 -0.620107 -2.798822 -0.072752 0.747100 -86.552309 0.953817 3.508222 -0.809680 -5.377995 4.091473 6.815104 -6.045165 13.676428 -4.574938 -8.083510 -1.628928 0.530528 -1.726218 -3.555072 3.529754 0.025841 -0.121810 0.066632 3.000626 10.147676 10.067478 4.818219 3.084616 2.095162 4.586979 -5.692607 -8.861363 0.028627 0.240771 -0.005984
2.035851 88.502847 18.172208 -40.447537 -7.591246 -1.508653 1.202152 2.051650 0.975914 0.670063 1.178953 0.605679 0.839568 1.472573 0.759290 0.670063 1.178953 0.605678 0.003676 30.168192 -0.233343 0.056732 8.014810 -0.259810 -6.496978 1.872924 -1.968369 -3.592676 -0.518932 92.520561 2.026117 -1.794656 -0.500875 1.390618 -2.382706 -2.623963 0.670479 -0.617491 -2.797001 -0.122018 0.812755 -86.545941 0.961547 3.554293 -0.807269 -5.415160 4.111220 6.819874 -5.955376 13.642660 -4.638616 -8.122330 -1.604115 0.546066 -1.760116 -3.560680 3.578283 0.021779 -0.123720 0.064685 2.925764 10.206723 9.992605 4.885819 2.973028 2.050261 4.589835 -5.700382 -8.778919 0.032544 0.250684 0.003378
2.090625 88.501501 18.256673 -40.463164 -7.557262 -1.495208 1.193482 2.033651 0.952782 0.662931 1.164622 0.598195 0.830604 1.454684 0.749885 0.662931 1.164622 0.598195 0.021376 30.170713 -0.214453 0.072114 8.018149 -0.242840 -6.529479 1.922899 -1.968427 -3.802480 -0.483281 92.659804 2.111061 -1.944279 -0.591329 1.606603 -2.458349 -2.832851 0.672032 -0.614847 -2.798571 -0.173701 0.867666 -86.550315 0.966586 3.587193 -0.803474 -5.439878 4.140803 6.828277 -5.879824 13.615591 -4.710375 -8.146886 -1.584227 0.557701 -1.785434 -3.565789 3.628853 0.020242 -0.126090 0.065030 2.854791 10.279941 9.910880 4.964714 2.853678 2.006348 4.588773 -5.712095 -8.694184 0.033585 0.264095 0.011289
2.146082 88.499913 18.342051 -40.479936 -7.521101 -1.482204 1.183582 2.015190 0.931789 0.656123 1.150828 0.591323 0.822048 1.437466 0.741247 0.656123 1.150828 0.591323 0.038816 30.168182 -0.195573 0.087209 8.014732 -0.225819 -6.561111 1.969883 -1.973405 -4.032207 -0.455168 92.770249 2.179140 -2.101056 -0.658034 1.800134 -2.533117 -2.996856 0.677751 -0.611987 -2.802499 -0.220153 0.911750 -86.563949 0.964965 3.618672 -0.797806 -5.442012 4.177251 6.844077 -5.829775 13.585931 -4.785038 -8.154768 -1.567835 0.563059 -1.799751 -3.570288 3.680771 0.021726 -0.129198 0.067546 2.785628 10.357422 9.830343 5.049704 2.721907 1.956801 4.584980 -5.720613 -8.606079 0.034056 0.279760 0.018732
2.202545 88.498141 18.428852 -40.501829 -7.485444 -1.457542 1.176015 1.997445 0.899648 0.650366 1.137501 0.584749 0.814810 1.420828 0.732988 0.650366 1.137501 0.584749 0.055268 30.162008 -0.174874 0.100797 8.006437 -0.206554 -6.594772 2.013891 -1.980670 -4.265799 -0.434317 92.848734 2.229838 -2.264978 -0.693333 1.952321 -2.596845 -3.111701 0.680985 -0.607392 -2.804277 -0.254138 0.944849 -86.586108 0.956843 3.657801 -0.788370 -5.420156 4.217224 6.866471 -5.803573 13.551930 -4.872369 -8.144439 -1.552336 0.559899 -1.816557 -3.559251 3.735274 0.026527 -0.146112 0.071336 2.720369 10.445032 9.739674 5.136201 2.574829 1.901709 4.582021 -5.754349 -8.517948 0.041702 0.325817 0.028576
2.256135 88.496414 18.513814 -40.525007 -7.452861 -1.446738 1.167871 1.979413 0.880995 0.645948 1.125181 0.577761 0.809244 1.405449 0.724216 0.645948 1.125181 0.577761 0.071637 30.153962 -0.151401 0.113665 7.995637 -0.184190 -6.624964 2.053691 -1.987883 -4.499413 -0.417855 92.894799 2.262599 -2.422490 -0.696539 2.047683 -2.647880 -3.175768 0.679129 -0.600246 -2.800971 -0.274227 0.968400 -86.615209 0.943866 3.709729 -0.774803 -5.376700 4.262575 6.893774 -5.793672 13.521804 -4.942130 -8.116495 -1.537939 0.547639 -1.835305 -3.561429 3.791440 0.030564 -0.151021 0.074438 2.656137 10.542162 9.666891 5.221359 2.410772 1.841701 4.583763 -5.750495 -8.426757 0.044001 0.344604 0.034732
2.308236 88.494842 18.598343 -40.552867 -7.427864 -1.434516 1.162814 1.963241 0.862427 0.643384 1.114792 0.570357 0.806000 1.392479 0.714934 0.643384 1.114792 0.570357 0.086827 30.145108 -0.126841 0.124979 7.983758 -0.160356 -6.652072 2.086040 -1.994542 -4.718212 -0.401502 92.905133 2.277855 -2.568777 -0.668580 2.085457 -2.684349 -3.187537 0.672184 -0.590980 -2.792700 -0.283856 0.982365 -86.649666 0.927741 3.777021 -0.761042 -5.317150 4.320495 6.925787 -5.793291 13.495809 -5.012972 -8.076180 -1.519532 0.527221 -1.848784 -3.566477 3.851614 0.035382 -0.156152 0.077335 2.593086 10.652507 9.594622 5.302352 2.238111 1.779257 4.590620 -5.743504 -8.335193 0.044892 0.362377 0.039663
2.358860 88.493561 18.682055 -40.583678 -7.412838 -1.421232 1.160960 1.950769 0.845188 0.642613 1.107285 0.563066 0.805002 1.383110 0.705804 0.642613 1.107285 0.563066 0.099468 30.135184 -0.103777 0.133798 7.970455 -0.137609 -6.677123 2.105909 -2.002225 -4.900862 -0.382964 92.878259 2.277082 -2.709714 -0.611044 2.069862 -2.697096 -3.156474 0.659569 -0.582057 -2.781654 -0.288131 0.985696 -86.689709 0.909078 3.860755 -0.746291 -5.244792 4.395525 6.956669 -5.799330 13.475997 -5.084502 -8.028371 -1.495578 0.502284 -1.862410 -3.574506 3.914328 0.039897 -0.161664 0.079027 2.526412 10.773332 9.520503 5.381239 2.066669 1.718818 4.604694 -5.736969 -8.246603 0.045041 0.378149 0.044314
2.408231 88.492683 18.764259 -40.618826 -7.408028 -1.408466 1.161726 1.942689 0.830207 0.643415 1.103169 0.556327 0.805978 1.377976 0.697374 0.643415 1.103169 0.556327 0.110349 30.123377 -0.083303 0.141246 7.954643 -0.117341 -6.694778 2.109227 -2.010763 -5.037800 -0.361759 92.818652 2.262019 -2.840387 -0.535299 2.004958 -2.683218 -3.091819 0.643562 -0.576595 -2.771449 -0.291468 0.979112 -86.735235 0.888651 3.961423 -0.724034 -5.160110 4.487460 6.982979 -5.805868 13.463886 -5.154915 -7.977455 -1.468787 0.478219 -1.881705 -3.582497 3.975581 0.043503 -0.167873 0.079655 2.456575 10.902675 9.444681 5.463035 1.899638 1.663672 4.622048 -5.731652 -8.161583 0.044707 0.391135 0.047875
2.456683 88.492324 18.844549 -40.660749 -7.413809 -1.397123 1.166101 1.939130 0.817070 0.646466 1.102328 0.550585 0.809772 1.376929 0.690204 0.646466 1.102328 0.550585 0.118619 30.110237 -0.065163 0.146322 7.937054 -0.099075 -6.705775 2.097003 -2.018942 -5.125856 -0.338368 92.732462 2.234167 -2.943548 -0.455086 1.899482 -2.650804 -3.001974 0.624203 -0.575986 -2.764888 -0.299203 0.965507 -86.784482 0.867712 4.072444 -0.691495 -5.065255 4.594410 7.007324 -5.806796 13.460451 -5.224838 -7.930077 -1.440219 0.457674 -1.896200 -3.588908 4.034554 0.046702 -0.175578 0.079722 2.392547 11.040144 9.370177 5.544459 1.735714 1.612665 4.639116 -5.725711 -8.078880 0.043231 0.400384 0.050028
2.504897 88.492561 18.922822 -40.708915 -7.429147 -1.386463 1.175362 1.940071 0.804631 0.652358 1.104127 0.546028 0.817127 1.379178 0.684529 0.652358 1.104127 0.546028 0.122706 30.096473 -0.049312 0.147272 7.918633 -0.082408 -6.714085 2.071199 -2.027169 -5.162359 -0.311275 92.624219 2.195712 -3.008824 -0.377118 1.763438 -2.602574 -2.895923 0.599256 -0.581675 -2.763318 -0.318121 0.949263 -86.833710 0.845400 4.185529 -0.653463 -4.960530 4.708624 7.032830 -5.800460 13.464076 -5.294794 -7.890934 -1.409099 0.439982 -1.902034 -3.593793 4.092500 0.049055 -0.184649 0.078972 2.337058 11.183245 9.297678 5.619630 1.575918 1.563643 4.657894 -5.717345 -7.997705 0.039968 0.404996 0.051291
2.553668 88.493400 18.998891 -40.764087 -7.450643 -1.375669 1.189216 1.944620 0.792699 0.660750 1.107912 0.542384 0.827613 1.383903 0.680006 0.660750 1.107912 0.542384 0.124474 30.081623 -0.035706 0.146155 7.898767 -0.067710 -6.719893 2.031587 -2.035342 -5.146836 -0.277302 92.498682 2.150311 -3.032060 -0.307124 1.611868 -2.537955 -2.779201 0.570456 -0.595309 -2.766677 -0.352981 0.931491 -86.880782 0.824513 4.294771 -0.613516 -4.850456 4.819155 7.059159 -5.784425 13.471705 -5.365455 -7.862029 -1.376898 0.426189 -1.898668 -3.596156 4.148369 0.051167 -0.194640 0.078103 2.293093 11.329082 9.227740 5.684644 1.417794 1.513729 4.680149 -5.703498 -7.915153 0.035580 0.404936 0.050991
2.603396 88.494854 19.072973 -40.827325 -7.476792 -1.363996 1.206746 1.951976 0.781338 0.670989 1.113374 0.539197 0.840411 1.390721 0.676063 0.670989 1.113374 0.539197 0.126239 30.065852 -0.023882 0.145435 7.877677 -0.054990 -6.720928 1.980489 -2.042556 -5.085617 -0.237793 92.361319 2.100339 -3.006892 -0.250954 1.464187 -2.462521 -2.659872 0.541179 -0.613967 -2.774389 -0.404158 0.906309 -86.924903 0.813197 4.393292 -0.572176 -4.745401 4.913046 7.077659 -5.758764 13.483351 -5.437735 -7.843029 -1.347340 0.417197 -1.886579 -3.594315 4.201005 0.053902 -0.205186 0.077754 2.264576 11.477307 9.159684 5.739603 1.257951 1.462742 4.705190 -5.681385 -7.830009 0.031186 0.400583 0.049055
